<svg viewBox="0 0 49 50" version="1.1" xmlns="http://www.w3.org/2000/svg" style="fill-rule:evenodd;clip-rule:evenodd;stroke-linejoin:round;stroke-miterlimit:2;">
  <g transform="matrix(1,0,0,1,-30.3499,-521.994)">
    <g transform="matrix(-0.885884,-1.0849e-16,1.0849e-16,-0.885884,197.973,711.36)">
        <rect x="134.898" y="198.377" width="15.383" height="15.383" style="fill:rgb(255,165,7);"/>
    </g>
    <g transform="matrix(-0.885884,-1.0849e-16,1.0849e-16,-0.885884,197.973,746.925)">
        <rect x="134.898" y="198.377" width="15.383" height="15.383" style="fill:rgb(255,165,7);"/>
    </g>
    <g transform="matrix(0.885707,0,0,0.885707,-89.1306,364.251)">
        <rect x="134.898" y="198.377" width="15.383" height="15.383" style="fill:rgb(255,165,7);"/>
    </g>
    <g transform="matrix(-0.885884,-1.0849e-16,1.0849e-16,-0.885884,180.812,711.36)">
        <rect x="134.898" y="198.377" width="15.383" height="15.383" style="fill:rgb(218,39,12);"/>
    </g>
    <g transform="matrix(-0.885884,-1.0849e-16,1.0849e-16,-0.885884,180.812,746.925)">
        <rect x="134.898" y="198.377" width="15.383" height="15.383" style="fill:rgb(218,39,12);"/>
    </g>
    <g transform="matrix(-0.885707,1.08468e-16,-1.08468e-16,-0.885707,197.799,729.282)">
        <rect x="134.898" y="198.377" width="15.383" height="15.383" style="fill:rgb(218,39,12);"/>
    </g>
    <g transform="matrix(-0.885884,-1.0849e-16,1.0849e-16,-0.885884,163.622,711.36)">
        <rect x="134.898" y="198.377" width="15.383" height="15.383" style="fill:rgb(120,23,112);"/>
    </g>
    <g transform="matrix(-0.885884,-1.0849e-16,1.0849e-16,-0.885884,163.622,746.925)">
        <rect x="134.898" y="198.377" width="15.383" height="15.383" style="fill:rgb(120,23,112);"/>
    </g>
    <g transform="matrix(-0.885707,1.08468e-16,-1.08468e-16,-0.885707,180.612,729.282)">
        <rect x="134.898" y="198.377" width="15.383" height="15.383" style="fill:rgb(120,23,112);"/>
    </g>
  </g>
</svg>